<svg width="44" height="18" viewBox="0 0 44 18" fill="none" xmlns="http://www.w3.org/2000/svg">
<path d="M7.40791 18L3.27991 4.56001H3.18391C3.19991 4.88001 3.22391 5.36001 3.25591 6.00001C3.28791 6.64001 3.31991 7.32801 3.35191 8.06401C3.38391 8.78401 3.39991 9.44001 3.39991 10.032V18H0.159912V0.864014H5.10391L9.15991 13.968H9.23191L13.5279 0.864014H18.4719V18H15.0879V9.88801C15.0879 9.34401 15.0959 8.72001 15.1119 8.01601C15.1439 7.31201 15.1679 6.64801 15.1839 6.02401C15.2159 5.38401 15.2399 4.90401 15.2559 4.58401H15.1599L10.7439 18H7.40791Z" fill="#333333"/>
<path d="M29.2085 18H21.4085V15.936L23.4965 14.976V3.88801L21.4085 2.92801V0.864014H29.2085V2.92801L27.1205 3.88801V14.976L29.2085 15.936V18Z" fill="#333333"/>
<path d="M38.7287 18H35.1047V3.88801H30.4487V0.864014H43.3847V3.88801H38.7287V18Z" fill="#333333"/>
</svg>
