<svg width="27" height="24" viewBox="0 0 27 24" fill="none" xmlns="http://www.w3.org/2000/svg">
<path d="M8.0773 4.46875C8.68954 3.75 9.46384 3.39063 10.4002 3.39063C12.1803 3.39063 13.0832 4.41927 13.1089 6.47656V12H11.2337V6.54687C11.2337 5.96354 11.1076 5.55208 10.8555 5.3125C10.6086 5.06771 10.2433 4.94531 9.75966 4.94531C9.00853 4.94531 8.44772 5.28385 8.0773 5.96094V12H6.20203V0H8.0773V4.46875Z" fill="#333333"/>
<path d="M19.3831 5.28125C19.1361 5.23958 18.8815 5.21875 18.6191 5.21875C17.7599 5.21875 17.1811 5.55208 16.8827 6.21874V12H15.0074V3.54687H16.7978L16.8441 4.49218C17.2968 3.75781 17.9246 3.39062 18.7271 3.39062C18.9947 3.39062 19.2159 3.42708 19.3908 3.5L19.3831 5.28125Z" fill="#333333"/>
<path d="M21.7986 3.54687L21.8526 4.52344C22.47 3.76823 23.2803 3.39062 24.2835 3.39062C26.0225 3.39062 26.9074 4.39844 26.9382 6.41406L27 24H25.063V6.52344C25.063 5.98698 24.9472 5.59115 24.7157 5.33594C24.4893 5.07552 24.1163 4.94531 23.5967 4.94531C22.8404 4.94531 22.277 5.29166 21.9066 5.98437V12H20.0314V3.54687H21.7986Z" fill="#333333"/>
<path d="M3.17109 1.14149V0H1.34075V1.14149H0V1.92274H1.34075V24H3.17109V1.92274H4.60976V1.14149H3.17109Z" fill="#333333"/>
<path d="M8.0773 16.4687C8.68954 15.75 9.46384 15.3906 10.4002 15.3906C12.1803 15.3906 13.0832 16.4193 13.1089 18.4765V24H11.2337V18.5469C11.2337 17.9635 11.1076 17.5521 10.8555 17.3125C10.6086 17.0677 10.2433 16.9453 9.75966 16.9453C9.00853 16.9453 8.44772 17.2839 8.0773 17.9609V24H6.20203V12H8.0773V16.4687Z" fill="#333333"/>
<path d="M16.8821 16.4687C17.4943 15.75 18.2686 15.3906 19.205 15.3906C20.9851 15.3906 21.888 16.4193 21.9138 18.4765V24H20.0385V18.5469C20.0385 17.9635 19.9124 17.5521 19.6603 17.3125C19.4134 17.0677 19.0481 16.9453 18.5644 16.9453C17.8133 16.9453 17.2525 17.2839 16.8821 17.9609V24H15.0068L15.0075 12H16.8827L16.8821 16.4687Z" fill="#333333"/>
</svg>
