<svg width="45" height="18" viewBox="0 0 45 18" fill="none" xmlns="http://www.w3.org/2000/svg">
<path d="M15.6 0.864014L9.768 18H5.808L0 0.864014H3.672L6.888 11.064C6.952 11.24 7.04 11.568 7.152 12.048C7.28 12.512 7.408 13.008 7.536 13.536C7.664 14.048 7.752 14.48 7.8 14.832C7.848 14.48 7.928 14.048 8.04 13.536C8.168 13.008 8.296 12.512 8.424 12.048C8.552 11.568 8.64 11.24 8.688 11.064L11.928 0.864014H15.6Z" fill="#333333"/>
<path d="M27.6334 18H17.7694V0.864014H27.6334V3.84001H21.3934V7.60801H27.2014V10.584H21.3934V15H27.6334V18Z" fill="#333333"/>
<path d="M36.1911 0.864014C38.5271 0.864014 40.2471 1.28801 41.3511 2.13601C42.4711 2.98401 43.0311 4.27201 43.0311 6.00001C43.0311 6.78401 42.8791 7.47201 42.5751 8.06401C42.2871 8.64001 41.8951 9.13601 41.3991 9.55201C40.9191 9.95201 40.3991 10.28 39.8391 10.536L44.8791 18H40.8471L36.7671 11.424H34.8231V18H31.1991V0.864014H36.1911ZM35.9271 3.84001H34.8231V8.47201H35.9991C37.1991 8.47201 38.0551 8.27201 38.5671 7.87201C39.0951 7.47201 39.3591 6.88001 39.3591 6.09601C39.3591 5.28001 39.0791 4.70401 38.5191 4.36801C37.9751 4.01601 37.1111 3.84001 35.9271 3.84001Z" fill="#333333"/>
</svg>
